Coordinates
version=1
nRows=17
nColumns=33
inDegrees=yes

Units are S.I. units (second, meters, Newtons, ...)
Angles are in degrees.

endheader
time	ground_thorax_rot_x	ground_thorax_rot_y	ground_thorax_rot_z	ground_thorax_tx	ground_thorax_ty	ground_thorax_tz	clav_prot_r	clav_elev_r	scapula_abduction_r	scapula_elevation_r	scapula_upward_rot_r	scapula_winging_r	shoulder_elv_r	plane_of_elev_r	axial_rot_r	elbow_flexion_r	pro_sup_r	wrist_flex_r	wrist_dev_r	clav_prot_l	clav_elev_l	scapula_abduction_l	scapula_elevation_l	scapula_upward_rot_l	scapula_winging_l	shoulder_elv_l	plane_of_elev_l	axial_rot_l	elbow_flexion_l	pro_sup_l	wrist_flex_l	wrist_dev_l
      3.95000000	    -19.96978725	    -35.68429888	     53.10167857	     76.92202874	    782.18911364	    -45.55313314	     30.44167683	    -45.00000000	     40.66768746	    -45.00000000	    -45.00000000	  -1542.61254789	  -2086.16700922	     19.77393041	   -142.28468543	    360.62935917	    172.38963319	     12.69662960	     11.97483530	     -0.88999576	     30.90904966	    -28.37488525	    -45.00000000	    -45.00000000	  -2795.86194935	   1349.66481842	    133.73102281	   -108.51994979	   2151.13346031	   -311.94559290	     10.37170295	    -15.19362265
      3.96000000	    -20.21957033	    -35.50384773	     52.65909042	     77.00251734	    781.92949258	    -45.63576331	     30.10568480	    -45.00000000	     40.57397185	    -45.00000000	    -45.00000000	  -1542.47827708	  -2086.08352850	     19.82216347	   -142.42755966	    360.61918995	    172.47179118	     12.86187924	     12.20842611	     -0.50783969	     30.81332144	    -27.96021210	    -45.00000000	    -45.00000000	  -2796.20250052	   1350.42811507	    133.57257888	   -106.93083564	   2150.96359771	   -311.83456935	     10.55742755	    -15.14289748
      3.97000000	    -20.52381603	    -35.28742883	     52.23959719	     76.97415079	    781.69957385	    -45.70728485	     30.23648140	    -45.00000000	     40.48022731	    -45.00000000	    -45.00000000	  -1542.37115564	  -2086.12498899	     19.85345702	   -142.65937279	    360.58167770	    172.63436987	     12.74880743	     11.85829453	     -0.83296036	     30.77750033	    -28.24596067	    -45.00000000	    -45.00000000	  -2796.20254515	   1350.17845156	    133.68114349	   -107.35675313	   2151.03776250	   -311.67727829	     10.02683758	    -15.05140997
      3.98000000	    -20.43338492	    -35.29193127	     52.33804240	     76.83185013	    781.48749235	    -45.77149967	     30.09894877	    -45.00000000	     40.58354074	    -45.00000000	    -45.00000000	  -1542.41131356	  -2086.04301364	     19.85148941	   -142.59236854	    360.69985269	    172.84596000	     12.92351594	     12.13555870	     -0.44019057	     30.84922382	    -28.06570651	    -45.00000000	    -45.00000000	  -2796.15438492	   1350.31804954	    133.67627592	   -107.46819084	   2151.04623756	   -311.50753987	     10.49966025	    -15.21049011
      3.99000000	    -20.70233774	    -35.08927086	     51.97859363	     76.58280915	    781.29979367	    -45.82601926	     30.20312544	    -45.00000000	     40.42771280	    -45.00000000	    -45.00000000	  -1542.37401097	  -2086.01305247	     19.93840121	   -142.57192118	    360.59156610	    173.02167608	     12.83902743	     11.80149263	     -0.82273930	     30.76859449	    -28.22838277	    -45.00000000	    -45.00000000	  -2796.13118426	   1350.15831628	    133.65837905	   -107.86671349	   2151.07669726	   -311.38824688	      9.97902143	    -15.15229540
      4.00000000	    -20.65130138	    -35.13287554	     52.05560212	     76.22273323	    781.12254152	    -45.87526991	     30.04789992	    -45.00000000	     40.58761447	    -45.00000000	    -45.00000000	  -1542.38180245	  -2086.01903829	     19.88229257	   -142.56989753	    360.79233275	    173.12451257	     13.02914426	     12.19100573	     -0.27793959	     30.90893027	    -27.97870361	    -45.00000000	    -45.00000000	  -2796.11768826	   1350.35826421	    133.69136113	   -108.02053961	   2151.12673782	   -311.27060014	     10.64073026	    -15.32051795
      4.01000000	    -20.88623803	    -34.95616915	     51.78861856	     75.76052957	    780.95595464	    -45.91925664	     30.15449735	    -45.00000000	     40.46095102	    -45.00000000	    -45.00000000	  -1542.36688723	  -2085.94107480	     19.89342395	   -142.53439145	    360.64894092	    173.20993472	     12.88117845	     11.83021359	     -0.73525651	     30.75336855	    -28.30202789	    -45.00000000	    -45.00000000	  -2795.93172216	   1350.14454480	    133.74310391	   -108.29098354	   2151.13298110	   -311.21978501	     10.03753497	    -15.28727729
      4.02000000	    -21.00259766	    -34.83201156	     51.59526035	     75.20375608	    780.79584393	    -45.95853247	     30.09699470	    -45.00000000	     40.46784401	    -45.00000000	    -45.00000000	  -1542.49787658	  -2085.96800815	     20.02960751	   -142.49420997	    360.77274678	    173.20465695	     13.05486282	     11.96164938	     -0.42232857	     30.97351746	    -28.02579902	    -45.00000000	    -45.00000000	  -2796.16535312	   1350.34318045	    133.77086997	   -108.54842894	   2151.27299776	   -311.16761633	     10.47835321	    -15.31970926
      4.03000000	    -21.21223179	    -34.71301855	     51.36603260	     74.55719578	    780.63763331	    -45.99286028	     30.12548308	    -45.00000000	     40.40664489	    -45.00000000	    -45.00000000	  -1542.38651138	  -2085.89862957	     19.89503365	   -142.44242550	    360.67170036	    173.21275941	     12.82609147	     11.73885320	     -0.76752483	     30.73050401	    -28.33955327	    -45.00000000	    -45.00000000	  -2795.84504796	   1350.11086001	    133.73729315	   -108.72837484	   2151.14254377	   -311.16729711	      9.88653488	    -15.31316248
      4.04000000	    -21.24625501	    -34.63325553	     51.31891383	     73.82482015	    780.47771671	    -46.02142192	     30.07955305	    -45.00000000	     40.50803877	    -45.00000000	    -45.00000000	  -1542.52639196	  -2085.91755362	     19.98470464	   -142.43031882	    360.83505666	    173.12841818	     13.02049379	     11.88029980	     -0.46490997	     30.95905624	    -28.23936303	    -45.00000000	    -45.00000000	  -2796.00350079	   1350.23719598	    133.96910958	   -108.86360681	   2151.27674526	   -311.16118302	     10.46023382	    -15.37721966
      4.05000000	    -21.48129315	    -34.48728756	     51.02357615	     73.00825050	    780.31341845	    -46.04356122	     30.10079570	    -45.00000000	     40.38802269	    -45.00000000	    -45.00000000	  -1542.45026351	  -2085.84493500	     19.92833204	   -142.33084268	    360.77317517	    173.08219159	     12.86210553	     11.75692824	     -0.71193007	     30.79263862	    -28.34772277	    -45.00000000	    -45.00000000	  -2795.78225510	   1350.15473036	    133.82256346	   -109.08296576	   2151.16859895	   -311.18892440	     10.06177233	    -15.41638121
      4.06000000	    -21.58813348	    -34.37921751	     50.87813478	     72.11443415	    780.14438104	    -46.05938993	     30.06677484	    -45.00000000	     40.44359769	    -45.00000000	    -45.00000000	  -1542.57481934	  -2085.87713188	     20.01537963	   -142.30870665	    360.88850583	    172.98017086	     12.96816132	     11.82366013	     -0.50125557	     30.95853502	    -28.28017380	    -45.00000000	    -45.00000000	  -2795.91408336	   1350.22444287	    134.00124867	   -109.22622591	   2151.26126812	   -311.20684020	     10.41443572	    -15.41139520
      4.07000000	    -21.82795467	    -34.25003313	     50.59995854	     71.14405654	    779.97011149	    -46.07016641	     30.06970664	    -45.00000000	     40.36630165	    -45.00000000	    -45.00000000	  -1542.49757188	  -2085.83044514	     19.95473070	   -142.20969820	    360.86078694	    172.91898209	     12.85838288	     11.76114405	     -0.68646810	     30.84001331	    -28.37885414	    -45.00000000	    -45.00000000	  -2795.71631308	   1350.21968596	    133.90893179	   -109.41843001	   2151.17676777	   -311.25147033	     10.13519172	    -15.46891278
      4.08000000	    -21.97970961	    -34.07702937	     50.37521412	     70.10107540	    779.79143624	    -46.07769651	     30.04237971	    -45.00000000	     40.43189918	    -45.00000000	    -45.00000000	  -1542.64180876	  -2085.84153434	     20.05373073	   -142.14503159	    360.98015523	    172.83937632	     12.92784194	     11.81961564	     -0.52315202	     30.98750124	    -28.30053052	    -45.00000000	    -45.00000000	  -2795.86174273	   1350.28286929	    133.99268831	   -109.58008857	   2151.24582564	   -311.27038329	     10.42953274	    -15.45379145
      4.09000000	    -22.23783831	    -33.92110126	     50.00953676	     68.98851017	    779.60926269	    -46.08378892	     30.04285226	    -45.00000000	     40.34609583	    -45.00000000	    -45.00000000	  -1542.58019198	  -2085.73732724	     20.01740243	   -142.03728983	    360.86960774	    172.81207800	     12.82420691	     11.76026670	     -0.73098891	     30.85096114	    -28.35188556	    -45.00000000	    -45.00000000	  -2795.65101803	   1350.27599719	    133.81615506	   -109.79979508	   2151.14520975	   -311.31673460	     10.07080285	    -15.52050477
      4.10000000	    -22.28709844	    -33.78298712	     49.91208180	     67.80937105	    779.42437330	    -46.08980719	     29.99142342	    -45.00000000	     40.41396457	    -45.00000000	    -45.00000000	  -1542.78736594	  -2085.71512676	     20.14506519	   -142.07068496	    360.99959052	    172.74642903	     13.02224639	     11.84442109	     -0.44412984	     31.09693643	    -28.27901249	    -45.00000000	    -45.00000000	  -2795.87396424	   1350.28696211	    134.09381712	   -109.87426284	   2151.29477444	   -311.31687953	     10.66312410	    -15.51478019
      4.11000000	    -22.46480780	    -33.70609234	     49.77069180	     66.56546985	    779.23724486	    -46.09621419	     30.04746845	    -45.00000000	     40.38443436	    -45.00000000	    -45.00000000	  -1542.67442542	  -2085.64146103	     19.93148077	   -142.00124438	    360.93677361	    172.75980313	     12.88787533	     11.75733485	     -0.64949742	     30.91126950	    -28.42652152	    -45.00000000	    -45.00000000	  -2795.60879565	   1350.20527285	    134.07249020	   -110.09038674	   2151.17324257	   -311.36682270	     10.20877241	    -15.57709870
